<?xml version="1.0" encoding="UTF-8" standalone="no"?>
<!-- Created with Inkscape (http://www.inkscape.org/) -->

<svg
   width="15.875mm"
   height="15.874996mm"
   viewBox="0 0 15.875 15.874996"
   version="1.1"
   id="svg5"
   xmlns="http://www.w3.org/2000/svg"
   xmlns:svg="http://www.w3.org/2000/svg">
  <defs
     id="defs2" />
  <g
     id="layer1"
     transform="translate(-59.730722,-59.042391)">
    <g
       id="g285"
       transform="translate(-0.80819403,-0.35919735)">
      <path
         id="path117"
         clip-path="none"
         mask="none"
         style="fill:#000000;stroke-width:0.0492175"
         d="m 68.476415,59.401588 a 7.9375,7.9375 0 0 0 -7.9375,7.9375 7.9375,7.9375 0 0 0 7.9375,7.9375 7.9375,7.9375 0 0 0 7.9375,-7.9375 7.9375,7.9375 0 0 0 -7.9375,-7.9375 z m 3.607015,2.990515 a 4.4301004,5.08729 0 0 1 3.497461,4.971273 4.4301004,5.08729 0 0 1 -3.590995,4.99246 1.0177258,1.1687017 0 0 0 0.1788,-0.661458 1.0177258,1.1687017 0 0 0 -0.106453,-0.520382 3.4123745,3.9185881 0 0 0 2.501139,-3.77703 3.4123745,3.9185881 0 0 0 -2.615861,-3.810103 1.0177258,1.1687017 0 0 0 0.221175,-0.727088 1.0177258,1.1687017 0 0 0 -0.08527,-0.467672 z m -3.181718,1.382345 a 4.4301004,3.6812101 0 0 1 3.497461,3.597196 4.4301004,3.6812101 0 0 1 -3.590995,3.6127 1.0177258,0.84568343 0 0 0 0.1788,-0.479041 1.0177258,0.84568343 0 0 0 -0.106453,-0.376204 3.4123745,2.8355267 0 0 0 2.501139,-2.733167 3.4123745,2.8355267 0 0 0 -2.615861,-2.756937 1.0177258,0.84568343 0 0 0 0.221175,-0.526066 1.0177258,0.84568343 0 0 0 -0.08527,-0.338481 z m -0.384473,1.869137 a 1.6163881,1.6163881 0 0 1 1.616439,1.616438 1.6163881,1.6163881 0 0 1 -1.616439,1.616439 1.6163881,1.6163881 0 0 1 -1.616438,-1.616439 1.6163881,1.6163881 0 0 1 1.616438,-1.616438 z" />
    </g>
  </g>
</svg>
